<svg xmlns="http://www.w3.org/2000/svg" x="0px" y="0px" width="25" height="25" viewBox="0 0 48 48" fill="rgb(255,255,255)">
<path d="M 36 2 C 35.413 2 34.838344 2.0495312 34.277344 2.1445312 L 33.931641 3.5761719 C 33.394641 5.8001719 31.105156 7.1226094 28.910156 6.4746094 L 27.705078 6.1171875 C 26.981078 7.0511875 26.401 8.1108125 26 9.2578125 L 26.894531 10.117188 C 28.529531 11.691187 28.529531 14.308813 26.894531 15.882812 L 26 16.742188 C 26.401 17.889187 26.980078 18.948813 27.705078 19.882812 L 28.910156 19.525391 C 31.105156 18.876391 33.394641 20.198828 33.931641 22.423828 L 34.277344 23.855469 C 34.838344 23.950469 35.414 24 36 24 C 36.587 24 37.161656 23.950469 37.722656 23.855469 L 38.068359 22.423828 C 38.605359 20.198828 40.894844 18.876391 43.089844 19.525391 L 44.294922 19.882812 C 45.018922 18.949813 45.599 17.889188 46 16.742188 L 45.105469 15.882812 C 43.470469 14.309812 43.470469 11.690187 45.105469 10.117188 L 46 9.2578125 C 45.599 8.1108125 45.019922 7.0511875 44.294922 6.1171875 L 43.089844 6.4746094 C 40.894844 7.1236094 38.605359 5.8011719 38.068359 3.5761719 L 37.722656 2.1445312 C 37.161656 2.0495312 36.587 2 36 2 z M 8.5 5 C 6.019 5 4 7.019 4 9.5 L 4 30.5 C 4 32.981 6.019 35 8.5 35 L 17 35 L 17 40 L 13.5 40 A 1.50015 1.50015 0 1 0 13.5 43 L 18.253906 43 A 1.50015 1.50015 0 0 0 18.740234 43 L 29.253906 43 A 1.50015 1.50015 0 0 0 29.740234 43 L 34.5 43 A 1.50015 1.50015 0 1 0 34.5 40 L 31 40 L 31 35 L 39.5 35 C 41.981 35 44 32.981 44 30.5 L 44 23.232422 C 41.793 24.960422 39.02 26 36 26 C 28.82 26 23 20.18 23 13 C 23 9.98 24.039578 7.207 25.767578 5 L 8.5 5 z M 36 10 C 37.657 10 39 11.343 39 13 C 39 14.657 37.657 16 36 16 C 34.343 16 33 14.657 33 13 C 33 11.343 34.343 10 36 10 z M 20 35 L 28 35 L 28 40 L 20 40 L 20 35 z"></path>
</svg>